<?xml version="1.0" encoding="utf-8"?>
<!-- Generator: Adobe Illustrator 15.0.0, SVG Export Plug-In  -->
<!DOCTYPE svg PUBLIC "-//W3C//DTD SVG 1.1//EN" "http://www.w3.org/Graphics/SVG/1.1/DTD/svg11.dtd" [
	<!ENTITY ns_flows "http://ns.adobe.com/Flows/1.0/">
]>
<svg version="1.1"
	 xmlns="http://www.w3.org/2000/svg" xmlns:xlink="http://www.w3.org/1999/xlink" xmlns:a="http://ns.adobe.com/AdobeSVGViewerExtensions/3.0/"
	 x="0px" y="0px" width="550px" height="550px" viewBox="1.5 1.5 550 550"
	 overflow="visible" enable-background="new 1.5 1.5 50 50" xml:space="preserve">
<defs>
<style>
	rect {
		stroke: #3399ff;
		stroke-width: 5;
	}
</style>
</defs>
<g>
	<g>
		<rect x="1" fill="#3399FF" width="51" height="51"/>
	</g>
	<g>
		<path fill="#3399FF" d="M51,1v50H1V1H51 M52,0h-0.5h-50H0v0.5v50V52h1.5h50H52v-1.5v-50V0L52,0z"/>
	</g>
</g>
<g>
	<g>
		<rect x="1" y="50" fill="#3399FF" width="51" height="51"/>
	</g>
	<g>
		<path fill="#3399FF" d="M51,51v50H1V51H51 M52,50h-0.5h-50H0v0.5v50v1.5h1.5h50H52v-1.5v-50V50L52,50z"/>
	</g>
</g>
<g>
	<g>
		<rect x="1" y="100" fill="#3399FF" width="51" height="51"/>
	</g>
	<g>
		<path fill="#3399FF" d="M51,101v50H1v-50H51 M52,100h-0.5h-50H0v0.5v50v1.5h1.5h50H52v-1.5v-50V100L52,100z"/>
	</g>
</g>
<g>
	<g>
		<rect x="1" y="150" fill="#3399FF" width="51" height="51"/>
	</g>
	<g>
		<path fill="#3399FF" d="M51,151v50H1v-50H51 M52,150h-0.5h-50H0v0.5v50v1.5h1.5h50H52v-1.5v-50V150L52,150z"/>
	</g>
</g>
<g>
	<g>
		<rect x="1" y="200" fill="#3399FF" width="51" height="51"/>
	</g>
	<g>
		<path fill="#3399FF" d="M51,201v50H1v-50H51 M52,200h-0.5h-50H0v0.5v50v1.5h1.5h50H52v-1.5v-50V200L52,200z"/>
	</g>
</g>
<g>
	<g>
		<rect x="1" y="250" fill="#3399FF" width="51" height="51"/>
	</g>
	<g>
		<path fill="#3399FF" d="M51,251v50H1v-50H51 M52,250h-0.5h-50H0v0.5v50v1.5h1.5h50H52v-1.5v-50V250L52,250z"/>
	</g>
</g>
<g>
	<g>
		<rect x="51" fill="#3399FF" width="51" height="51"/>
	</g>
	<g>
		<path fill="#3399FF" d="M101,1v50H51V1H101 M102,0h-0.5h-50H50v0.5v50V52h1.5h50h0.5v-1.5v-50V0L102,0z"/>
	</g>
</g>
<g>
	<g>
		<rect x="51" y="50" fill="#3399FF" width="51" height="51"/>
	</g>
	<g>
		<path fill="#3399FF" d="M101,51v50H51V51H101 M102,50h-0.5h-50H50v0.5v50v1.5h1.5h50h0.5v-1.5v-50V50L102,50z"/>
	</g>
</g>
<g>
	<g>
		<rect x="51" y="100" fill="#3399FF" width="51" height="51"/>
	</g>
	<g>
		<path fill="#3399FF" d="M101,101v50H51v-50H101 M102,100h-0.5h-50H50v0.5v50v1.5h1.5h50h0.5v-1.5v-50V100L102,100z"/>
	</g>
</g>
<g>
	<g>
		<rect x="51" y="150" fill="#3399FF" width="51" height="51"/>
	</g>
	<g>
		<path fill="#3399FF" d="M101,151v50H51v-50H101 M102,150h-0.5h-50H50v0.5v50v1.5h1.5h50h0.5v-1.5v-50V150L102,150z"/>
	</g>
</g>
<g>
	<g>
		<rect x="51" y="200" fill="#3399FF" width="51" height="51"/>
	</g>
	<g>
		<path fill="#3399FF" d="M101,201v50H51v-50H101 M102,200h-0.5h-50H50v0.5v50v1.5h1.5h50h0.5v-1.5v-50V200L102,200z"/>
	</g>
</g>
<g>
	<g>
		<rect x="51" y="250" fill="#3399FF" width="51" height="51"/>
	</g>
	<g>
		<path fill="#3399FF" d="M101,251v50H51v-50H101 M102,250h-0.5h-50H50v0.5v50v1.5h1.5h50h0.5v-1.5v-50V250L102,250z"/>
	</g>
</g>
<g>
	<g>
		<rect x="1" y="300" fill="#3399FF" width="51" height="51"/>
	</g>
	<g>
		<path fill="#3399FF" d="M51,301v50H1v-50H51 M52,300h-0.5h-50H0v0.5v50v1.5h1.5h50H52v-1.5v-50V300L52,300z"/>
	</g>
</g>
<g>
	<g>
		<rect x="1" y="350" fill="#3399FF" width="51" height="51"/>
	</g>
	<g>
		<path fill="#3399FF" d="M51,351v50H1v-50H51 M52,350h-0.5h-50H0v0.5v50v1.5h1.5h50H52v-1.5v-50V350L52,350z"/>
	</g>
</g>
<g>
	<g>
		<rect x="1" y="400" fill="#3399FF" width="51" height="51"/>
	</g>
	<g>
		<path fill="#3399FF" d="M51,401v50H1v-50H51 M52,400h-0.5h-50H0v0.5v50v1.5h1.5h50H52v-1.5v-50V400L52,400z"/>
	</g>
</g>
<g>
	<g>
		<rect x="1" y="450" fill="#3399FF" width="51" height="51"/>
	</g>
	<g>
		<path fill="#3399FF" d="M51,451v50H1v-50H51 M52,450h-0.5h-50H0v0.5v50v1.5h1.5h50H52v-1.5v-50V450L52,450z"/>
	</g>
</g>
<g>
	<g>
		<rect x="1" y="500" fill="#3399FF" width="51" height="51"/>
	</g>
	<g>
		<path fill="#3399FF" d="M51,501v50H1v-50H51 M52,500h-0.5h-50H0v0.5v50v1.5h1.5h50H52v-1.5v-50V500L52,500z"/>
	</g>
</g>
<g>
	<g>
		<rect x="1" y="450" fill="#3399FF" width="51" height="51"/>
	</g>
	<g>
		<path fill="#3399FF" d="M51,451v50H1v-50H51 M52,450h-0.5h-50H0v0.5v50v1.5h1.5h50H52v-1.5v-50V450L52,450z"/>
	</g>
</g>
<g>
	<g>
		<rect x="51" y="300" fill="#3399FF" width="51" height="51"/>
	</g>
	<g>
		<path fill="#3399FF" d="M101,301v50H51v-50H101 M102,300h-0.5h-50H50v0.5v50v1.5h1.5h50h0.5v-1.5v-50V300L102,300z"/>
	</g>
</g>
<g>
	<g>
		<rect x="51" y="350" fill="#3399FF" width="51" height="51"/>
	</g>
	<g>
		<path fill="#3399FF" d="M101,351v50H51v-50H101 M102,350h-0.5h-50H50v0.5v50v1.5h1.5h50h0.5v-1.5v-50V350L102,350z"/>
	</g>
</g>
<g>
	<g>
		<rect x="51" y="400" fill="#3399FF" width="51" height="51"/>
	</g>
	<g>
		<path fill="#3399FF" d="M101,401v50H51v-50H101 M102,400h-0.5h-50H50v0.5v50v1.5h1.5h50h0.5v-1.5v-50V400L102,400z"/>
	</g>
</g>
<g>
	<g>
		<rect x="51" y="450" fill="#3399FF" width="51" height="51"/>
	</g>
	<g>
		<path fill="#3399FF" d="M101,451v50H51v-50H101 M102,450h-0.5h-50H50v0.5v50v1.5h1.5h50h0.5v-1.5v-50V450L102,450z"/>
	</g>
</g>
<g>
	<g>
		<rect x="51" y="500" fill="#3399FF" width="51" height="51"/>
	</g>
	<g>
		<path fill="#3399FF" d="M101,501v50H51v-50H101 M102,500h-0.5h-50H50v0.5v50v1.5h1.5h50h0.5v-1.5v-50V500L102,500z"/>
	</g>
</g>
<g>
	<g>
		<rect x="51" y="450" fill="#3399FF" width="51" height="51"/>
	</g>
	<g>
		<path fill="#3399FF" d="M101,451v50H51v-50H101 M102,450h-0.5h-50H50v0.5v50v1.5h1.5h50h0.5v-1.5v-50V450L102,450z"/>
	</g>
</g>
<g>
	<g>
		<rect x="101" y="500" fill="#3399FF" width="51" height="51"/>
	</g>
	<g>
		<path fill="#3399FF" d="M151,501v50h-50v-50H151 M152,500h-0.5h-50H100v0.5v50v1.5h1.5h50h0.5v-1.5v-50V500L152,500z"/>
	</g>
</g>
<g>
	<g>
		<rect x="101" y="450" fill="#3399FF" width="51" height="51"/>
	</g>
	<g>
		<path fill="#3399FF" d="M151,451v50h-50v-50H151 M152,450h-0.5h-50H100v0.5v50v1.5h1.5h50h0.5v-1.5v-50V450L152,450z"/>
	</g>
</g>
<g>
	<g>
		<rect x="151" y="500" fill="#3399FF" width="51" height="51"/>
	</g>
	<g>
		<path fill="#3399FF" d="M201,501v50h-50v-50H201 M202,500h-0.5h-50H150v0.5v50v1.5h1.5h50h0.5v-1.5v-50V500L202,500z"/>
	</g>
</g>
<g>
	<g>
		<rect x="151" y="450" fill="#3399FF" width="51" height="51"/>
	</g>
	<g>
		<path fill="#3399FF" d="M201,451v50h-50v-50H201 M202,450h-0.5h-50H150v0.5v50v1.5h1.5h50h0.5v-1.5v-50V450L202,450z"/>
	</g>
</g>
<g>
	<g>
		<rect x="201" y="500" fill="#3399FF" width="51" height="51"/>
	</g>
	<g>
		<path fill="#3399FF" d="M251,501v50h-50v-50H251 M252,500h-0.5h-50H200v0.5v50v1.5h1.5h50h0.5v-1.5v-50V500L252,500z"/>
	</g>
</g>
<g>
	<g>
		<rect x="201" y="450" fill="#3399FF" width="51" height="51"/>
	</g>
	<g>
		<path fill="#3399FF" d="M251,451v50h-50v-50H251 M252,450h-0.5h-50H200v0.5v50v1.5h1.5h50h0.5v-1.5v-50V450L252,450z"/>
	</g>
</g>
<g>
	<g>
		<rect x="251" y="500" fill="#3399FF" width="51" height="51"/>
	</g>
	<g>
		<path fill="#3399FF" d="M301,501v50h-50v-50H301 M302,500h-0.5h-50H250v0.5v50v1.5h1.5h50h0.5v-1.5v-50V500L302,500z"/>
	</g>
</g>
<g>
	<g>
		<rect x="251" y="450" fill="#3399FF" width="51" height="51"/>
	</g>
	<g>
		<path fill="#3399FF" d="M301,451v50h-50v-50H301 M302,450h-0.5h-50H250v0.5v50v1.5h1.5h50h0.5v-1.5v-50V450L302,450z"/>
	</g>
</g>
<g>
	<g>
		<rect x="301" y="500" fill="#3399FF" width="51" height="51"/>
	</g>
	<g>
		<path fill="#3399FF" d="M351,501v50h-50v-50H351 M352,500h-0.5h-50H300v0.5v50v1.5h1.5h50h0.5v-1.5v-50V500L352,500z"/>
	</g>
</g>
<g>
	<g>
		<rect x="301" y="450" fill="#3399FF" width="51" height="51"/>
	</g>
	<g>
		<path fill="#3399FF" d="M351,451v50h-50v-50H351 M352,450h-0.5h-50H300v0.5v50v1.5h1.5h50h0.5v-1.5v-50V450L352,450z"/>
	</g>
</g>
<g>
	<g>
		<rect x="351" y="500" fill="#3399FF" width="51" height="51"/>
	</g>
	<g>
		<path fill="#3399FF" d="M401,501v50h-50v-50H401 M402,500h-0.5h-50H350v0.5v50v1.5h1.5h50h0.5v-1.5v-50V500L402,500z"/>
	</g>
</g>
<g>
	<g>
		<rect x="351" y="450" fill="#3399FF" width="51" height="51"/>
	</g>
	<g>
		<path fill="#3399FF" d="M401,451v50h-50v-50H401 M402,450h-0.5h-50H350v0.5v50v1.5h1.5h50h0.5v-1.5v-50V450L402,450z"/>
	</g>
</g>
<g>
	<g>
		<rect x="301" y="400" fill="#3399FF" width="51" height="51"/>
	</g>
	<g>
		<path fill="#3399FF" d="M351,401v50h-50v-50H351 M352,400h-0.5h-50H300v0.5v50v1.5h1.5h50h0.5v-1.5v-50V400L352,400z"/>
	</g>
</g>
<g>
	<g>
		<rect x="301" y="450" fill="#3399FF" width="51" height="51"/>
	</g>
	<g>
		<path fill="#3399FF" d="M351,451v50h-50v-50H351 M352,450h-0.5h-50H300v0.5v50v1.5h1.5h50h0.5v-1.5v-50V450L352,450z"/>
	</g>
</g>
<g>
	<g>
		<rect x="351" y="400" fill="#3399FF" width="51" height="51"/>
	</g>
	<g>
		<path fill="#3399FF" d="M401,401v50h-50v-50H401 M402,400h-0.5h-50H350v0.5v50v1.5h1.5h50h0.5v-1.5v-50V400L402,400z"/>
	</g>
</g>
<g>
	<g>
		<rect x="351" y="450" fill="#3399FF" width="51" height="51"/>
	</g>
	<g>
		<path fill="#3399FF" d="M401,451v50h-50v-50H401 M402,450h-0.5h-50H350v0.5v50v1.5h1.5h50h0.5v-1.5v-50V450L402,450z"/>
	</g>
</g>
<g>
	<g>
		<rect x="301" y="300" fill="#3399FF" width="51" height="51"/>
	</g>
	<g>
		<path fill="#3399FF" d="M351,301v50h-50v-50H351 M352,300h-0.5h-50H300v0.5v50v1.5h1.5h50h0.5v-1.5v-50V300L352,300z"/>
	</g>
</g>
<g>
	<g>
		<rect x="301" y="350" fill="#3399FF" width="51" height="51"/>
	</g>
	<g>
		<path fill="#3399FF" d="M351,351v50h-50v-50H351 M352,350h-0.5h-50H300v0.5v50v1.5h1.5h50h0.5v-1.5v-50V350L352,350z"/>
	</g>
</g>
<g>
	<g>
		<rect x="351" y="300" fill="#3399FF" width="51" height="51"/>
	</g>
	<g>
		<path fill="#3399FF" d="M401,301v50h-50v-50H401 M402,300h-0.5h-50H350v0.5v50v1.5h1.5h50h0.5v-1.5v-50V300L402,300z"/>
	</g>
</g>
<g>
	<g>
		<rect x="351" y="350" fill="#3399FF" width="51" height="51"/>
	</g>
	<g>
		<path fill="#3399FF" d="M401,351v50h-50v-50H401 M402,350h-0.5h-50H350v0.5v50v1.5h1.5h50h0.5v-1.5v-50V350L402,350z"/>
	</g>
</g>
<g>
	<g>
		<rect x="301" y="150" fill="#3399FF" width="51" height="51"/>
	</g>
	<g>
		<path fill="#3399FF" d="M351,151v50h-50v-50H351 M352,150h-0.5h-50H300v0.5v50v1.5h1.5h50h0.5v-1.5v-50V150L352,150z"/>
	</g>
</g>
<g>
	<g>
		<rect x="301" y="200" fill="#3399FF" width="51" height="51"/>
	</g>
	<g>
		<path fill="#3399FF" d="M351,201v50h-50v-50H351 M352,200h-0.5h-50H300v0.5v50v1.5h1.5h50h0.5v-1.5v-50V200L352,200z"/>
	</g>
</g>
<g>
	<g>
		<rect x="351" y="150" fill="#3399FF" width="51" height="51"/>
	</g>
	<g>
		<path fill="#3399FF" d="M401,151v50h-50v-50H401 M402,150h-0.5h-50H350v0.5v50v1.5h1.5h50h0.5v-1.5v-50V150L402,150z"/>
	</g>
</g>
<g>
	<g>
		<rect x="351" y="200" fill="#3399FF" width="51" height="51"/>
	</g>
	<g>
		<path fill="#3399FF" d="M401,201v50h-50v-50H401 M402,200h-0.5h-50H350v0.5v50v1.5h1.5h50h0.5v-1.5v-50V200L402,200z"/>
	</g>
</g>
<g>
	<g>
		<rect x="451" y="500" fill="#3399FF" width="51" height="51"/>
	</g>
	<g>
		<path fill="#3399FF" d="M501,501v50h-50v-50H501 M502,500h-0.5h-50H450v0.5v50v1.5h1.5h50h0.5v-1.5v-50V500L502,500z"/>
	</g>
</g>
<g>
	<g>
		<rect x="501" y="500" fill="#3399FF" width="51" height="51"/>
	</g>
	<g>
		<path fill="#3399FF" d="M551,501v50h-50v-50H551 M552,500h-0.5h-50H500v0.5v50v1.5h1.5h50h0.5v-1.5v-50V500L552,500z"/>
	</g>
</g>
<g>
	<g>
		<rect x="451" y="400" fill="#3399FF" width="51" height="51"/>
	</g>
	<g>
		<path fill="#3399FF" d="M501,401v50h-50v-50H501 M502,400h-0.5h-50H450v0.5v50v1.5h1.5h50h0.5v-1.5v-50V400L502,400z"/>
	</g>
</g>
<g>
	<g>
		<rect x="451" y="450" fill="#3399FF" width="51" height="51"/>
	</g>
	<g>
		<path fill="#3399FF" d="M501,451v50h-50v-50H501 M502,450h-0.5h-50H450v0.5v50v1.5h1.5h50h0.5v-1.5v-50V450L502,450z"/>
	</g>
</g>
<g>
	<g>
		<rect x="501" y="400" fill="#3399FF" width="51" height="51"/>
	</g>
	<g>
		<path fill="#3399FF" d="M551,401v50h-50v-50H551 M552,400h-0.5h-50H500v0.5v50v1.5h1.5h50h0.5v-1.5v-50V400L552,400z"/>
	</g>
</g>
<g>
	<g>
		<rect x="501" y="450" fill="#3399FF" width="51" height="51"/>
	</g>
	<g>
		<path fill="#3399FF" d="M551,451v50h-50v-50H551 M552,450h-0.5h-50H500v0.5v50v1.5h1.5h50h0.5v-1.5v-50V450L552,450z"/>
	</g>
</g>
<g>
	<g>
		<rect x="451" y="300" fill="#3399FF" width="51" height="51"/>
	</g>
	<g>
		<path fill="#3399FF" d="M501,301v50h-50v-50H501 M502,300h-0.5h-50H450v0.5v50v1.5h1.5h50h0.5v-1.5v-50V300L502,300z"/>
	</g>
</g>
<g>
	<g>
		<rect x="451" y="350" fill="#3399FF" width="51" height="51"/>
	</g>
	<g>
		<path fill="#3399FF" d="M501,351v50h-50v-50H501 M502,350h-0.5h-50H450v0.5v50v1.5h1.5h50h0.5v-1.5v-50V350L502,350z"/>
	</g>
</g>
<g>
	<g>
		<rect x="501" y="300" fill="#3399FF" width="51" height="51"/>
	</g>
	<g>
		<path fill="#3399FF" d="M551,301v50h-50v-50H551 M552,300h-0.5h-50H500v0.5v50v1.5h1.5h50h0.5v-1.5v-50V300L552,300z"/>
	</g>
</g>
<g>
	<g>
		<rect x="501" y="350" fill="#3399FF" width="51" height="51"/>
	</g>
	<g>
		<path fill="#3399FF" d="M551,351v50h-50v-50H551 M552,350h-0.5h-50H500v0.5v50v1.5h1.5h50h0.5v-1.5v-50V350L552,350z"/>
	</g>
</g>
<g>
	<g>
		<rect x="451" y="200" fill="#3399FF" width="51" height="51"/>
	</g>
	<g>
		<path fill="#3399FF" d="M501,201v50h-50v-50H501 M502,200h-0.5h-50H450v0.5v50v1.5h1.5h50h0.5v-1.5v-50V200L502,200z"/>
	</g>
</g>
<g>
	<g>
		<rect x="451" y="250" fill="#3399FF" width="51" height="51"/>
	</g>
	<g>
		<path fill="#3399FF" d="M501,251v50h-50v-50H501 M502,250h-0.5h-50H450v0.5v50v1.5h1.5h50h0.5v-1.5v-50V250L502,250z"/>
	</g>
</g>
<g>
	<g>
		<rect x="501" y="200" fill="#3399FF" width="51" height="51"/>
	</g>
	<g>
		<path fill="#3399FF" d="M551,201v50h-50v-50H551 M552,200h-0.5h-50H500v0.5v50v1.5h1.5h50h0.5v-1.5v-50V200L552,200z"/>
	</g>
</g>
<g>
	<g>
		<rect x="501" y="250" fill="#3399FF" width="51" height="51"/>
	</g>
	<g>
		<path fill="#3399FF" d="M551,251v50h-50v-50H551 M552,250h-0.5h-50H500v0.5v50v1.5h1.5h50h0.5v-1.5v-50V250L552,250z"/>
	</g>
</g>
<g>
	<g>
		<rect x="451" y="100" fill="#3399FF" width="51" height="51"/>
	</g>
	<g>
		<path fill="#3399FF" d="M501,101v50h-50v-50H501 M502,100h-0.5h-50H450v0.5v50v1.5h1.5h50h0.5v-1.5v-50V100L502,100z"/>
	</g>
</g>
<g>
	<g>
		<rect x="451" y="150" fill="#3399FF" width="51" height="51"/>
	</g>
	<g>
		<path fill="#3399FF" d="M501,151v50h-50v-50H501 M502,150h-0.5h-50H450v0.5v50v1.5h1.5h50h0.5v-1.5v-50V150L502,150z"/>
	</g>
</g>
<g>
	<g>
		<rect x="501" y="100" fill="#3399FF" width="51" height="51"/>
	</g>
	<g>
		<path fill="#3399FF" d="M551,101v50h-50v-50H551 M552,100h-0.5h-50H500v0.5v50v1.5h1.5h50h0.5v-1.5v-50V100L552,100z"/>
	</g>
</g>
<g>
	<g>
		<rect x="501" y="150" fill="#3399FF" width="51" height="51"/>
	</g>
	<g>
		<path fill="#3399FF" d="M551,151v50h-50v-50H551 M552,150h-0.5h-50H500v0.5v50v1.5h1.5h50h0.5v-1.5v-50V150L552,150z"/>
	</g>
</g>
<g>
	<g>
		<rect x="451" fill="#3399FF" width="51" height="51"/>
	</g>
	<g>
		<path fill="#3399FF" d="M501,1v50h-50V1H501 M502,0h-0.5h-50H450v0.5v50V52h1.5h50h0.5v-1.5v-50V0L502,0z"/>
	</g>
</g>
<g>
	<g>
		<rect x="451" y="50" fill="#3399FF" width="51" height="51"/>
	</g>
	<g>
		<path fill="#3399FF" d="M501,51v50h-50V51H501 M502,50h-0.5h-50H450v0.5v50v1.5h1.5h50h0.5v-1.5v-50V50L502,50z"/>
	</g>
</g>
<g>
	<g>
		<rect x="501" fill="#3399FF" width="51" height="51"/>
	</g>
	<g>
		<path fill="#3399FF" d="M551,1v50h-50V1H551 M552,0h-0.5h-50H500v0.5v50V52h1.5h50h0.5v-1.5v-50V0L552,0z"/>
	</g>
</g>
<g>
	<g>
		<rect x="501" y="50" fill="#3399FF" width="51" height="51"/>
	</g>
	<g>
		<path fill="#3399FF" d="M551,51v50h-50V51H551 M552,50h-0.5h-50H500v0.5v50v1.5h1.5h50h0.5v-1.5v-50V50L552,50z"/>
	</g>
</g>
<g>
	<g>
		<rect x="401" fill="#3399FF" width="51" height="51"/>
	</g>
	<g>
		<path fill="#3399FF" d="M451,1v50h-50V1H451 M452,0h-0.5h-50H400v0.5v50V52h1.5h50h0.5v-1.5v-50V0L452,0z"/>
	</g>
</g>
<g>
	<g>
		<rect x="401" y="50" fill="#3399FF" width="51" height="51"/>
	</g>
	<g>
		<path fill="#3399FF" d="M451,51v50h-50V51H451 M452,50h-0.5h-50H400v0.5v50v1.5h1.5h50h0.5v-1.5v-50V50L452,50z"/>
	</g>
</g>
<g>
	<g>
		<rect x="451" fill="#3399FF" width="51" height="51"/>
	</g>
	<g>
		<path fill="#3399FF" d="M501,1v50h-50V1H501 M502,0h-0.5h-50H450v0.5v50V52h1.5h50h0.5v-1.5v-50V0L502,0z"/>
	</g>
</g>
<g>
	<g>
		<rect x="451" y="50" fill="#3399FF" width="51" height="51"/>
	</g>
	<g>
		<path fill="#3399FF" d="M501,51v50h-50V51H501 M502,50h-0.5h-50H450v0.5v50v1.5h1.5h50h0.5v-1.5v-50V50L502,50z"/>
	</g>
</g>
<g>
	<g>
		<rect x="301" fill="#3399FF" width="51" height="51"/>
	</g>
	<g>
		<path fill="#3399FF" d="M351,1v50h-50V1H351 M352,0h-0.5h-50H300v0.5v50V52h1.5h50h0.5v-1.5v-50V0L352,0z"/>
	</g>
</g>
<g>
	<g>
		<rect x="301" y="50" fill="#3399FF" width="51" height="51"/>
	</g>
	<g>
		<path fill="#3399FF" d="M351,51v50h-50V51H351 M352,50h-0.5h-50H300v0.5v50v1.5h1.5h50h0.5v-1.5v-50V50L352,50z"/>
	</g>
</g>
<g>
	<g>
		<rect x="351" fill="#3399FF" width="51" height="51"/>
	</g>
	<g>
		<path fill="#3399FF" d="M401,1v50h-50V1H401 M402,0h-0.5h-50H350v0.5v50V52h1.5h50h0.5v-1.5v-50V0L402,0z"/>
	</g>
</g>
<g>
	<g>
		<rect x="351" y="50" fill="#3399FF" width="51" height="51"/>
	</g>
	<g>
		<path fill="#3399FF" d="M401,51v50h-50V51H401 M402,50h-0.5h-50H350v0.5v50v1.5h1.5h50h0.5v-1.5v-50V50L402,50z"/>
	</g>
</g>
<g>
	<g>
		<rect x="201" fill="#3399FF" width="51" height="51"/>
	</g>
	<g>
		<path fill="#3399FF" d="M251,1v50h-50V1H251 M252,0h-0.5h-50H200v0.5v50V52h1.5h50h0.5v-1.5v-50V0L252,0z"/>
	</g>
</g>
<g>
	<g>
		<rect x="201" y="50" fill="#3399FF" width="51" height="51"/>
	</g>
	<g>
		<path fill="#3399FF" d="M251,51v50h-50V51H251 M252,50h-0.5h-50H200v0.5v50v1.5h1.5h50h0.5v-1.5v-50V50L252,50z"/>
	</g>
</g>
<g>
	<g>
		<rect x="151" fill="#3399FF" width="51" height="51"/>
	</g>
	<g>
		<path fill="#3399FF" d="M201,1v50h-50V1H201 M202,0h-0.5h-50H150v0.5v50V52h1.5h50h0.5v-1.5v-50V0L202,0z"/>
	</g>
</g>
<g>
	<g>
		<rect x="151" y="50" fill="#3399FF" width="51" height="51"/>
	</g>
	<g>
		<path fill="#3399FF" d="M201,51v50h-50V51H201 M202,50h-0.5h-50H150v0.5v50v1.5h1.5h50h0.5v-1.5v-50V50L202,50z"/>
	</g>
</g>
<g>
	<g>
		<rect x="201" y="100" fill="#3399FF" width="51" height="51"/>
	</g>
	<g>
		<path fill="#3399FF" d="M251,101v50h-50v-50H251 M252,100h-0.5h-50H200v0.5v50v1.5h1.5h50h0.5v-1.5v-50V100L252,100z"/>
	</g>
</g>
<g>
	<g>
		<rect x="201" y="150" fill="#3399FF" width="51" height="51"/>
	</g>
	<g>
		<path fill="#3399FF" d="M251,151v50h-50v-50H251 M252,150h-0.5h-50H200v0.5v50v1.5h1.5h50h0.5v-1.5v-50V150L252,150z"/>
	</g>
</g>
<g>
	<g>
		<rect x="151" y="100" fill="#3399FF" width="51" height="51"/>
	</g>
	<g>
		<path fill="#3399FF" d="M201,101v50h-50v-50H201 M202,100h-0.5h-50H150v0.5v50v1.5h1.5h50h0.5v-1.5v-50V100L202,100z"/>
	</g>
</g>
<g>
	<g>
		<rect x="151" y="150" fill="#3399FF" width="51" height="51"/>
	</g>
	<g>
		<path fill="#3399FF" d="M201,151v50h-50v-50H201 M202,150h-0.5h-50H150v0.5v50v1.5h1.5h50h0.5v-1.5v-50V150L202,150z"/>
	</g>
</g>
<g>
	<g>
		<rect x="201" y="200" fill="#3399FF" width="51" height="51"/>
	</g>
	<g>
		<path fill="#3399FF" d="M251,201v50h-50v-50H251 M252,200h-0.5h-50H200v0.5v50v1.5h1.5h50h0.5v-1.5v-50V200L252,200z"/>
	</g>
</g>
<g>
	<g>
		<rect x="201" y="250" fill="#3399FF" width="51" height="51"/>
	</g>
	<g>
		<path fill="#3399FF" d="M251,251v50h-50v-50H251 M252,250h-0.5h-50H200v0.5v50v1.5h1.5h50h0.5v-1.5v-50V250L252,250z"/>
	</g>
</g>
<g>
	<g>
		<rect x="151" y="200" fill="#3399FF" width="51" height="51"/>
	</g>
	<g>
		<path fill="#3399FF" d="M201,201v50h-50v-50H201 M202,200h-0.5h-50H150v0.5v50v1.5h1.5h50h0.5v-1.5v-50V200L202,200z"/>
	</g>
</g>
<g>
	<g>
		<rect x="151" y="250" fill="#3399FF" width="51" height="51"/>
	</g>
	<g>
		<path fill="#3399FF" d="M201,251v50h-50v-50H201 M202,250h-0.5h-50H150v0.5v50v1.5h1.5h50h0.5v-1.5v-50V250L202,250z"/>
	</g>
</g>
<g>
	<g>
		<rect x="201" y="300" fill="#3399FF" width="51" height="51"/>
	</g>
	<g>
		<path fill="#3399FF" d="M251,301v50h-50v-50H251 M252,300h-0.5h-50H200v0.5v50v1.5h1.5h50h0.5v-1.5v-50V300L252,300z"/>
	</g>
</g>
<g>
	<g>
		<rect x="201" y="350" fill="#3399FF" width="51" height="51"/>
	</g>
	<g>
		<path fill="#3399FF" d="M251,351v50h-50v-50H251 M252,350h-0.5h-50H200v0.5v50v1.5h1.5h50h0.5v-1.5v-50V350L252,350z"/>
	</g>
</g>
<g>
	<g>
		<rect x="151" y="300" fill="#3399FF" width="51" height="51"/>
	</g>
	<g>
		<path fill="#3399FF" d="M201,301v50h-50v-50H201 M202,300h-0.5h-50H150v0.5v50v1.5h1.5h50h0.5v-1.5v-50V300L202,300z"/>
	</g>
</g>
<g>
	<g>
		<rect x="151" y="350" fill="#3399FF" width="51" height="51"/>
	</g>
	<g>
		<path fill="#3399FF" d="M201,351v50h-50v-50H201 M202,350h-0.5h-50H150v0.5v50v1.5h1.5h50h0.5v-1.5v-50V350L202,350z"/>
	</g>
</g>
<g>
	<g>
		<rect x="251" fill="#3399FF" width="51" height="51"/>
	</g>
	<g>
		<path fill="#3399FF" d="M301,1v50h-50V1H301 M302,0h-0.5h-50H250v0.5v50V52h1.5h50h0.5v-1.5v-50V0L302,0z"/>
	</g>
</g>
<g>
	<g>
		<rect x="251" y="50" fill="#3399FF" width="51" height="51"/>
	</g>
	<g>
		<path fill="#3399FF" d="M301,51v50h-50V51H301 M302,50h-0.5h-50H250v0.5v50v1.5h1.5h50h0.5v-1.5v-50V50L302,50z"/>
	</g>
</g>
</svg>
